<?xml version="1.0" encoding="UTF-8" standalone="no"?>
<!-- Creator: CorelDRAW X8 -->

<svg
   xmlns:dc="http://purl.org/dc/elements/1.1/"
   xmlns:cc="http://creativecommons.org/ns#"
   xmlns:rdf="http://www.w3.org/1999/02/22-rdf-syntax-ns#"
   xmlns:svg="http://www.w3.org/2000/svg"
   xmlns="http://www.w3.org/2000/svg"
   xmlns:sodipodi="http://sodipodi.sourceforge.net/DTD/sodipodi-0.dtd"
   xmlns:inkscape="http://www.inkscape.org/namespaces/inkscape"
   xml:space="preserve"
   width="700"
   height="250"
   version="1.1"
   style="clip-rule:evenodd;fill-rule:evenodd;image-rendering:optimizeQuality;shape-rendering:geometricPrecision;text-rendering:geometricPrecision"
   viewBox="0 0 18520.834 6614.5832"
   id="svg9667"
   sodipodi:docname="logomarca.svg"
   inkscape:version="0.92.1 r15371"><metadata
     id="metadata9671"><rdf:RDF><cc:Work
         rdf:about=""><dc:format>image/svg+xml</dc:format><dc:type
           rdf:resource="http://purl.org/dc/dcmitype/StillImage" /><dc:title></dc:title></cc:Work></rdf:RDF></metadata><sodipodi:namedview
     pagecolor="#ffffff"
     bordercolor="#666666"
     borderopacity="1"
     objecttolerance="10"
     gridtolerance="10"
     guidetolerance="10"
     inkscape:pageopacity="0"
     inkscape:pageshadow="2"
     inkscape:window-width="1904"
     inkscape:window-height="1001"
     id="namedview9669"
     showgrid="false"
     units="px"
     inkscape:zoom="1.1893651"
     inkscape:cx="463.65426"
     inkscape:cy="215.28014"
     inkscape:window-x="0"
     inkscape:window-y="0"
     inkscape:window-maximized="0"
     inkscape:current-layer="svg9667" /><defs
     id="defs9558"><style
       type="text/css"
       id="style9556"><![CDATA[
    .fil1 {fill:#2B2A29}
    .fil2 {fill:#E6B012}
    .fil4 {fill:#AD2624}
    .fil0 {fill:#2B2A29;fill-rule:nonzero}
    .fil3 {fill:#AD2624;fill-rule:nonzero}
   ]]></style></defs><g
     id="Capa_x0020_1"
     transform="matrix(0.44242689,0,0,0.44242689,2769.5718,-1298.8147)"><metadata
       id="CorelCorpID_0Corel-Layer" /><g
       id="_752731040"><g
         id="g9621"><g
           id="g9565"><path
             class="fil0"
             d="m 17186,11668 h -1192 c 11,144 63,260 156,348 94,89 211,133 351,133 99,0 188,-26 267,-77 79,-51 141,-123 184,-215 h 192 c -61,147 -147,259 -256,337 -111,78 -238,117 -382,117 -193,0 -355,-68 -488,-205 -132,-137 -199,-301 -199,-493 0,-201 65,-367 195,-498 130,-131 296,-197 499,-197 198,0 360,68 485,205 125,137 188,314 188,533 z m -187,-143 c -32,-148 -91,-260 -177,-335 -85,-75 -197,-112 -334,-112 -128,0 -237,40 -326,121 -88,80 -143,189 -163,326 z"
             id="path9561"
             inkscape:connector-curvature="0"
             style="fill:#2b2a29;fill-rule:nonzero" /><path
             class="fil0"
             d="m 15454,11163 v -294 -342 h 170 v 1747 h -170 v -199 c -60,73 -133,131 -221,172 -88,41 -181,62 -280,62 -190,0 -350,-67 -481,-202 -130,-134 -195,-299 -195,-494 0,-194 64,-357 193,-489 128,-132 290,-199 483,-199 104,0 199,20 284,61 85,41 157,99 217,177 z m 4,464 c 0,-150 -50,-279 -149,-385 -100,-106 -217,-159 -351,-159 -139,0 -258,50 -357,152 -100,101 -149,224 -149,371 0,154 50,283 149,388 100,105 220,158 362,158 130,0 245,-53 346,-158 99,-105 149,-227 149,-367 z"
             id="path9563"
             inkscape:connector-curvature="0"
             style="fill:#2b2a29;fill-rule:nonzero" /></g><g
           id="g9595"><path
             class="fil0"
             d="M 11793,10794 V 8696 h 134 v 197 c 32,-77 68,-135 108,-173 39,-39 88,-58 144,-58 75,0 140,33 197,99 57,67 100,161 128,283 30,121 44,254 44,399 0,155 -16,295 -48,419 -32,124 -78,219 -139,286 -61,66 -125,99 -192,99 -50,0 -93,-18 -133,-54 -39,-37 -71,-82 -96,-137 v 738 z m 133,-1331 c 0,195 23,339 68,433 46,93 101,140 165,140 65,0 122,-49 168,-146 47,-96 70,-246 70,-449 0,-193 -23,-337 -68,-434 -46,-96 -100,-144 -163,-144 -63,0 -119,51 -167,153 -49,103 -73,252 -73,447 z"
             id="path9567"
             inkscape:connector-curvature="0"
             style="fill:#2b2a29;fill-rule:nonzero" /><g
             id="g9593"><path
               class="fil0"
               d="M 17202,10213 V 8696 h 132 v 216 c 64,-167 157,-250 277,-250 53,0 101,16 145,49 44,33 77,76 98,129 23,54 38,117 47,190 5,48 8,131 8,250 v 933 h -148 v -923 c 0,-104 -6,-183 -17,-235 -11,-52 -32,-93 -61,-124 -29,-31 -63,-47 -103,-47 -63,0 -117,35 -163,105 -45,69 -68,201 -68,395 v 829 z"
               id="path9569"
               inkscape:connector-curvature="0"
               style="fill:#2b2a29;fill-rule:nonzero" /><polygon
               class="fil0"
               points="16662,8508 16540,8508 16649,8108 16842,8108 "
               id="polygon9571"
               style="fill:#2b2a29;fill-rule:nonzero" /><path
               class="fil0"
               d="m 16214,9454 c 0,-281 45,-489 134,-624 75,-112 166,-168 274,-168 119,0 217,68 293,205 76,136 114,325 114,566 0,195 -17,349 -50,460 -34,112 -83,199 -147,261 -64,62 -134,93 -210,93 -122,0 -220,-68 -295,-205 -76,-136 -113,-332 -113,-588 z m 151,0 c 0,195 25,340 73,436 49,97 110,146 184,146 73,0 134,-49 183,-146 48,-97 72,-245 72,-444 0,-188 -24,-330 -73,-427 -49,-96 -109,-144 -182,-144 -74,0 -135,48 -184,144 -48,96 -73,241 -73,435 z"
               id="path9573"
               inkscape:connector-curvature="0"
               style="fill:#2b2a29;fill-rule:nonzero" /><polygon
               class="fil0"
               points="16045,10213 15897,10213 15897,8696 16045,8696 "
               id="polygon9575"
               style="fill:#2b2a29;fill-rule:nonzero" /><polygon
               class="fil0"
               points="16045,8415 15897,8415 15897,8119 16045,8119 "
               id="polygon9577"
               style="fill:#2b2a29;fill-rule:nonzero" /><path
               class="fil0"
               d="m 15625,9657 145,33 c -16,174 -56,310 -122,409 -65,98 -145,148 -240,148 -119,0 -215,-68 -287,-204 -72,-135 -109,-330 -109,-583 0,-164 16,-307 47,-430 31,-123 79,-215 142,-276 64,-62 133,-92 208,-92 94,0 172,41 232,125 60,83 98,201 115,355 l -143,38 c -14,-102 -38,-178 -72,-230 -35,-51 -77,-77 -126,-77 -75,0 -135,46 -181,139 -47,93 -70,240 -70,441 0,203 22,352 67,444 45,92 103,139 176,139 57,0 106,-32 144,-94 39,-61 64,-156 74,-285 z"
               id="path9579"
               inkscape:connector-curvature="0"
               style="fill:#2b2a29;fill-rule:nonzero" /><path
               class="fil0"
               d="m 14692,10025 c -54,81 -107,138 -157,172 -51,33 -105,50 -163,50 -96,0 -169,-41 -220,-122 -52,-82 -77,-186 -77,-312 0,-75 9,-143 29,-204 19,-61 45,-111 76,-148 31,-37 67,-65 106,-84 29,-13 73,-26 131,-38 119,-25 207,-55 263,-89 1,-35 1,-58 1,-67 0,-105 -14,-179 -42,-221 -38,-59 -94,-87 -168,-87 -69,0 -120,20 -154,63 -33,42 -57,117 -73,225 l -144,-35 c 13,-107 35,-194 65,-260 30,-66 73,-117 130,-153 57,-35 122,-53 197,-53 75,0 135,15 181,45 47,31 81,69 103,115 22,47 37,105 46,175 4,44 7,123 7,237 v 343 c 0,239 3,390 10,453 6,64 18,125 37,183 h -154 c -15,-54 -26,-116 -30,-188 z m -12,-574 c -54,39 -134,71 -241,98 -60,15 -103,32 -128,51 -25,19 -45,47 -58,84 -14,36 -21,77 -21,122 0,68 15,125 45,171 29,45 73,68 130,68 57,0 107,-21 152,-64 44,-44 77,-103 97,-178 16,-58 24,-144 24,-257 z"
               id="path9581"
               inkscape:connector-curvature="0"
               style="fill:#2b2a29;fill-rule:nonzero" /><path
               class="fil0"
               d="m 13981,9982 21,228 c -42,15 -79,23 -111,23 -54,0 -96,-15 -125,-45 -30,-29 -50,-68 -62,-116 -12,-48 -18,-150 -18,-304 v -872 h -109 v -200 h 109 v -376 l 146,-154 v 530 h 149 v 200 h -149 v 887 c 0,73 3,120 8,141 5,21 14,38 25,50 12,12 29,19 51,19 16,0 38,-4 65,-11 z"
               id="path9583"
               inkscape:connector-curvature="0"
               style="fill:#2b2a29;fill-rule:nonzero" /><path
               class="fil0"
               d="m 13296,10213 v -223 c -68,171 -160,257 -276,257 -51,0 -100,-17 -144,-52 -44,-34 -77,-77 -99,-129 -22,-52 -37,-115 -46,-190 -5,-51 -8,-131 -8,-241 v -939 h 147 v 841 c 0,134 3,225 9,271 9,68 29,121 59,160 30,38 67,57 111,57 44,0 86,-19 125,-59 39,-39 66,-93 82,-161 16,-68 24,-167 24,-296 v -813 h 148 v 1517 z"
               id="path9585"
               inkscape:connector-curvature="0"
               style="fill:#2b2a29;fill-rule:nonzero" /><polygon
               class="fil0"
               points="11568,10213 11421,10213 11421,8696 11568,8696 "
               id="polygon9587"
               style="fill:#2b2a29;fill-rule:nonzero" /><polygon
               class="fil0"
               points="11568,8415 11421,8415 11421,8119 11568,8119 "
               id="polygon9589"
               style="fill:#2b2a29;fill-rule:nonzero" /><path
               class="fil0"
               d="M 10228,10213 V 8119 h 413 c 94,0 165,10 214,30 69,28 128,78 176,150 63,93 111,212 142,358 32,145 47,311 47,497 0,159 -10,300 -32,423 -21,123 -48,225 -82,305 -33,80 -69,144 -109,190 -39,46 -87,81 -143,105 -56,24 -121,36 -193,36 z m 158,-248 h 257 c 79,0 141,-12 186,-38 45,-26 81,-62 108,-109 38,-65 67,-154 88,-264 21,-112 32,-246 32,-404 0,-219 -21,-387 -62,-505 -42,-118 -92,-196 -151,-236 -42,-29 -111,-43 -205,-43 h -253 z"
               id="path9591"
               inkscape:connector-curvature="0"
               style="fill:#2b2a29;fill-rule:nonzero" /></g></g><g
           id="g9619"><g
             id="g9601"><polygon
               class="fil1"
               points="18898,8633 18898,8342 19401,8342 19401,8943 19247,8943 19152,8633 "
               id="polygon9597"
               style="fill:#2b2a29" /><path
               class="fil0"
               d="m 18341,11540 -227,771 h -595 l 1138,-3678 h 241 v 310 h 349 l 1027,3368 h -615 l -231,-771 z m 898,-682 -347,-1184 -353,1184 z"
               id="path9599"
               inkscape:connector-curvature="0"
               style="fill:#2b2a29;fill-rule:nonzero" /></g><polygon
             class="fil0"
             points="23857,12311 23354,12311 23354,8633 23857,8633 "
             id="polygon9603"
             style="fill:#2b2a29;fill-rule:nonzero" /><g
             id="g9609"><polygon
               class="fil0"
               points="22893,12311 22390,12311 22390,9532 22893,9532 "
               id="polygon9605"
               style="fill:#2b2a29;fill-rule:nonzero" /><polygon
               class="fil0"
               points="22893,8633 22893,9249 22390,9249 22390,8633 "
               id="polygon9607"
               style="fill:#2b2a29;fill-rule:nonzero" /></g><polygon
             class="fil0"
             points="21165,11379 21697,9532 22232,9532 21346,12311 20942,12311 20101,9532 20650,9532 "
             id="polygon9611"
             style="fill:#2b2a29;fill-rule:nonzero" /><g
             id="g9617"><path
               class="fil0"
               d="m 26021,12311 v -404 c -62,138 -149,240 -261,306 -112,66 -255,98 -430,98 -327,0 -600,-140 -820,-420 -219,-281 -329,-629 -329,-1045 0,-195 28,-381 83,-556 55,-175 133,-329 235,-462 110,-147 233,-254 367,-324 134,-70 285,-105 453,-105 160,0 299,33 415,100 116,68 210,169 281,307 v -337 h 503 v 2842 z m -1312,-1475 c 0,234 62,429 186,587 124,158 275,236 454,236 162,0 305,-79 429,-237 123,-158 184,-344 184,-556 0,-226 -61,-420 -186,-582 -124,-163 -269,-244 -435,-244 -174,0 -323,77 -447,231 -123,154 -185,342 -185,565 z"
               id="path9613"
               inkscape:connector-curvature="0"
               style="fill:#2b2a29;fill-rule:nonzero" /><path
               class="fil1"
               d="m 25328,10527 c 169,0 307,137 307,307 0,169 -138,306 -307,306 -169,0 -306,-137 -306,-306 0,-170 137,-307 306,-307 z"
               id="path9615"
               inkscape:connector-curvature="0"
               style="fill:#2b2a29" /></g></g></g><g
         id="g9663"><g
           id="g9637"><path
             class="fil2"
             d="m 3505,5573 c -173,0 -333,58 -462,154 349,373 618,823 777,1321 269,-121 456,-390 456,-704 0,-425 -345,-771 -771,-771 z"
             id="path9623"
             inkscape:connector-curvature="0"
             style="fill:#e6b012" /><path
             class="fil2"
             d="m 9101,5573 c -426,0 -771,346 -771,771 0,314 188,584 457,704 159,-498 427,-948 777,-1320 -129,-97 -289,-155 -463,-155 z"
             id="path9625"
             inkscape:connector-curvature="0"
             style="fill:#e6b012" /><path
             class="fil2"
             d="m 6303,5000 c -425,0 -770,345 -770,771 0,425 345,770 770,770 426,0 771,-345 771,-770 0,-426 -345,-771 -771,-771 z"
             id="path9627"
             inkscape:connector-curvature="0"
             style="fill:#e6b012" /><path
             class="fil2"
             d="m 4968,5370 c -226,0 -409,183 -409,409 0,226 183,409 409,409 226,0 409,-183 409,-409 0,-226 -183,-409 -409,-409 z"
             id="path9629"
             inkscape:connector-curvature="0"
             style="fill:#e6b012" /><path
             class="fil2"
             d="m 7639,5370 c -226,0 -409,183 -409,409 0,226 183,409 409,409 226,0 409,-183 409,-409 0,-226 -183,-409 -409,-409 z"
             id="path9631"
             inkscape:connector-curvature="0"
             style="fill:#e6b012" /><polygon
             class="fil2"
             points="6232,4670 6232,4813 6374,4813 6374,4670 6518,4670 6518,4528 6374,4528 6374,4384 6232,4384 6232,4528 6089,4528 6089,4670 "
             id="polygon9633"
             style="fill:#e6b012" /><path
             class="fil2"
             d="m 3856,7168 c 46,164 80,332 102,505 717,-319 1510,-496 2345,-496 836,0 1629,177 2346,496 22,-172 56,-340 101,-503 -752,-320 -1580,-497 -2449,-497 -867,0 -1693,176 -2445,495 z"
             id="path9635"
             inkscape:connector-curvature="0"
             style="fill:#e6b012" /></g><g
           id="g9661"><path
             class="fil3"
             d="m 2873,12213 h 419 49 v 49 153 h 320 v -153 -49 h 49 416 49 v 49 153 h 320 v -153 -49 h 49 422 49 v 49 267 0 c 0,36 2,70 4,103 8,109 28,212 59,308 30,95 71,183 121,265 244,400 692,624 1107,624 27,0 55,-1 84,-3 279,-20 565,-141 788,-345 223,-203 382,-490 410,-841 2,-35 4,-71 4,-108 v -270 -49 h 49 2093 49 v 49 676 c 0,37 -1,77 -3,120 -32,1026 -479,1859 -1116,2442 -637,582 -1465,914 -2261,937 -30,1 -61,1 -92,1 -31,0 -62,0 -93,-1 -230,-7 -463,-39 -694,-95 -231,-56 -459,-136 -679,-239 -1111,-519 -2020,-1621 -2020,-3174 h -1 v -667 -49 z m 370,98 h -321 v 618 0 c 0,1510 884,2581 1964,3086 215,100 437,178 661,232 224,54 451,86 674,92 31,1 61,2 90,2 29,0 59,-1 90,-1 772,-23 1577,-346 2197,-912 619,-566 1053,-1376 1085,-2373 1,-35 2,-74 2,-117 v -627 H 7690 v 221 c 0,39 -2,77 -5,115 -29,378 -201,687 -441,906 -240,219 -547,349 -848,371 -29,2 -59,3 -90,3 -446,-1 -928,-241 -1191,-671 -53,-88 -97,-183 -130,-287 -34,-103 -55,-213 -64,-330 -2,-37 -4,-73 -4,-110 v 0 -218 h -324 v 153 49 h -49 -418 -49 v -49 -153 h -318 v 153 49 h -49 -418 -49 v -49 z"
             id="path9639"
             inkscape:connector-curvature="0"
             style="fill:#ad2624;fill-rule:nonzero" /><g
             id="g9659"><g
               id="g9651"><path
                 class="fil4"
                 d="m 8851,8571 c 325,0 589,263 589,588 0,151 -57,288 -149,392 l -10,-8 -212,-175 c 51,-54 83,-128 83,-209 0,-166 -135,-301 -301,-301 -166,0 -301,135 -301,301 0,81 32,155 84,209 l -212,175 -10,8 c -93,-104 -149,-241 -149,-392 0,-325 263,-588 588,-588 z m 0,617 109,355 109,355 h -218 -218 l 109,-355 z m -836,1022 h 1717 v 2052 H 8015 V 10210 H 6301 V 8157 h 1714 z m -441,-574 c -230,230 -603,230 -833,0 -106,-106 -163,-243 -171,-382 l 12,-1 274,-26 -173,-328 -174,-328 328,174 327,174 26,-274 1,-13 c 139,8 276,65 383,172 229,230 230,602 0,832 z m -717,-409 c 1,75 31,149 88,206 117,117 308,117 425,0 118,-118 118,-308 0,-426 -57,-57 -131,-86 -205,-88 v 0 l -154,154 z m 2432,2425 c -230,229 -603,230 -832,0 -107,-107 -164,-244 -172,-383 l 13,-1 274,-26 -174,-327 -174,-328 328,174 327,173 26,-274 2,-12 c 139,8 276,65 382,171 230,230 230,603 0,833 z m -717,-409 c 2,74 31,148 88,205 118,118 308,118 426,0 117,-117 117,-308 0,-426 -57,-56 -131,-86 -206,-88 v 1 l -154,154 z"
                 id="path9641"
                 inkscape:connector-curvature="0"
                 style="fill:#ad2624" /><path
                 class="fil3"
                 d="m 4966,10619 h 140 c 98,-513 588,-428 547,-943 -980,741 -1273,294 -835,-472 -692,371 -711,780 -475,1331 -152,40 -406,-120 -502,-624 -325,762 79,1206 602,1625 H 3360 V 8859 l 492,-1 v 252 h 379 v -252 h 715 v 252 h 380 v -252 l 491,1 v 1760 h 1824 49 v 49 1864 c 0,41 -2,81 -5,121 -31,375 -202,682 -441,900 -239,218 -544,348 -843,370 -31,3 -62,4 -95,4 -32,0 -64,-1 -94,-4 -91,-7 -184,-23 -274,-49 -90,-26 -179,-61 -265,-105 -420,-216 -756,-645 -756,-1240 v -1861 -49 z m 2626,98 H 5015 v 1812 c 0,554 312,953 702,1153 80,41 163,74 248,98 84,24 169,39 254,46 31,2 60,3 87,3 28,0 57,-1 88,-3 277,-21 562,-142 784,-345 222,-202 381,-487 409,-836 3,-36 5,-74 5,-113 z"
                 id="path9643"
                 inkscape:connector-curvature="0"
                 style="fill:#ad2624;fill-rule:nonzero" /><path
                 class="fil4"
                 d="m 8775,15324 c -668,685 -1591,1067 -2464,1066 -878,-2 -1812,-377 -2485,-1066 h 601 c 0,-242 196,-437 437,-437 242,0 438,195 438,437 h 175 c 0,455 369,824 824,824 455,0 824,-369 824,-824 h 163 c 0,-242 196,-437 438,-437 241,0 437,195 437,437 z m -3298,0 c 0,-455 369,-824 824,-824 455,0 824,369 824,824 -192,230 -421,437 -711,435 l -1,-610 h 251 l -1,-203 -248,-1 -2,-271 h -185 v 271 h -251 l 2,206 249,-2 v 587 c -129,-44 -256,-196 -311,-411 z"
                 id="path9645"
                 inkscape:connector-curvature="0"
                 style="fill:#ad2624" /><path
                 class="fil4"
                 d="m 9586,13771 c -25,-73 -55,-143 -90,-210 -26,143 -80,241 -198,332 -268,63 -481,249 -750,182 -22,50 -48,102 -77,156 91,36 346,95 833,-15 l 142,-8 c 56,-140 103,-286 140,-437 z m -5112,703 1828,-454 2007,503 c -7,14 -15,28 -22,42 49,-91 98,-178 143,-260 267,153 687,216 922,117 -58,118 -121,230 -190,338 l -882,-182 5,-11 -5,10 -1978,-432 -1695,371 z m -244,-78 1230,389 -10,23 -1122,-234 2,4 -889,184 c -88,-138 -166,-284 -234,-438 l 8,18 1113,232 c -33,-61 -66,-120 -98,-178 l -1133,-358 c -28,-85 -54,-172 -75,-261 191,-556 668,-968 1260,-968 0,-152 -57,-231 113,-200 209,72 259,152 296,467 178,296 377,627 336,751 l -176,102 c -48,24 -151,-14 -219,-12 l -366,-400 c -443,155 -269,463 -36,879 z m 5209,-936 c -68,-109 -148,-209 -239,-296 -40,214 -330,471 -594,568 24,77 10,167 -27,267 162,-11 418,-102 541,-225 127,-129 260,-164 319,-314 z m -363,-400 c -211,-157 -467,-251 -748,-251 0,-152 57,-231 -113,-200 -209,72 -259,152 -296,467 -178,296 -377,627 -336,751 l 176,102 c 48,24 150,-14 219,-12 l 366,-400 4,1 c 178,-214 214,-400 79,-592 l 131,76 c 150,318 -58,301 -186,525 97,38 161,84 200,138 81,-46 257,-182 455,-543 z"
                 id="path9647"
                 inkscape:connector-curvature="0"
                 style="fill:#ad2624" /><path
                 class="fil3"
                 d="m 6123,11134 -289,283 h -257 l 257,-283 z m 1376,350 -601,1458 -596,-1458 h 425 l 68,222 109,355 109,-355 68,-222 z m -1750,778 v 348 h -121 v 336 h -420 v -885 c -8,-345 186,-572 515,-572 257,0 535,198 514,572 v 885 h -420 v -885 c 6,-91 -30,-147 -90,-147 -66,0 -102,41 -99,147 v 201 z"
                 id="path9649"
                 inkscape:connector-curvature="0"
                 style="fill:#ad2624;fill-rule:nonzero" /></g><g
               id="g9657"><path
                 class="fil3"
                 d="m 2873,8108 h 6861 48 v 49 4781 h 1 c 0,37 -1,77 -3,120 -32,1026 -479,1859 -1116,2442 -637,582 -1465,914 -2261,937 -30,1 -61,1 -92,1 -31,0 -62,0 -93,-1 -230,-7 -463,-39 -694,-95 -231,-56 -459,-136 -679,-239 -1111,-519 -2020,-1621 -2020,-3174 h -1 v -4772 -49 z m 6812,98 H 2922 v 4723 0 c 0,1510 884,2581 1964,3086 215,100 437,178 661,232 224,54 451,86 674,92 31,1 61,2 90,2 29,0 59,-1 90,-1 772,-23 1577,-346 2197,-912 619,-566 1053,-1376 1085,-2373 1,-35 2,-74 2,-117 v 0 z"
                 id="path9653"
                 inkscape:connector-curvature="0"
                 style="fill:#ad2624;fill-rule:nonzero" /><path
                 class="fil3"
                 d="M 9681,8206 H 6350 v 2413 h 1291 49 v 49 1545 h 1991 z m -3380,-98 h 3429 49 v 49 4105 49 h -49 -2089 -49 v -49 -1545 h -1291 -49 v -49 -2511 -49 z"
                 id="path9655"
                 inkscape:connector-curvature="0"
                 style="fill:#ad2624;fill-rule:nonzero" /></g></g></g></g></g></g></svg>